<svg xmlns="http://www.w3.org/2000/svg" aria-hidden="true" focusable="false" data-prefix="fas" data-icon="arrow-right" role="img" width="448" height="512" style=""><rect id="backgroundrect" width="100%" height="100%" x="0" y="0" fill="none" stroke="none"/><g class="currentLayer" style=""><title>Layer 1</title><path fill="#ff0000" d="M189.90476191043854,66.9 l22.2,-22.2 c9.4,-9.4 24.6,-9.4 33.9,0 L440.40476191043854,239 c9.4,9.4 9.4,24.6 0,33.9 L246.00476191043853,467.3 c-9.4,9.4 -24.6,9.4 -33.9,0 l-22.2,-22.2 c-9.5,-9.5 -9.3,-25 0.4,-34.3 L310.8047619104385,296 H23.404761910438538 c-13.3,0 -24,-10.7 -24,-24 v-32 c0,-13.3 10.7,-24 24,-24 h287.4 L190.30476191043854,101.2 c-9.8,-9.3 -10,-24.8 -0.4,-34.3 z" id="svg_1" class="" fill-opacity="1"/></g></svg>